<svg xmlns="http://www.w3.org/2000/svg" xmlns:xlink="http://www.w3.org/1999/xlink" viewBox="0 0 21 66.25" version="1.1"
  x="0px" y="0px">
  <title>mouse-scroll-icon@1x</title>
  <g stroke-width="1" fill-rule="evenodd">
    <g transform="translate(-688.000000, -825.000000)" fill="#2b2b2b">
      <g>
        <g transform="translate(688.000000, 825.000000)">
          <g>
            <path
              d="M10.2836612,18.9567552 C10.7203179,18.9567552 11.074706,19.3103522 11.074706,19.7478 L11.074706,24.4940687 C11.074706,24.9315164 10.7203179,25.2851134 10.2836612,25.2851134 C9.84700448,25.2851134 9.49261642,24.9315164 9.49261642,24.4940687 L9.49261642,19.7478 C9.49261642,19.3103522 9.84700448,18.9567552 10.2836612,18.9567552 Z M11.074706,50.2818119 L13.6851537,47.6713642 C13.8433627,47.5131552 14.0015716,47.4340507 14.2388851,47.4340507 C14.4761985,47.4340507 14.6344075,47.5131552 14.7926164,47.6713642 C15.1090343,47.9885731 15.1090343,48.462409 14.7926164,48.7796179 L10.8373925,52.7348418 C10.6791836,52.8930507 10.4814224,52.9713642 10.2836612,52.9713642 C10.0859,52.9713642 9.88813881,52.8930507 9.72992985,52.7348418 L5.77470597,48.7796179 C5.45828806,48.462409 5.45828806,47.9885731 5.77470597,47.6713642 C5.93291493,47.5131552 6.09112388,47.4340507 6.32843731,47.4340507 C6.56575075,47.4340507 6.7239597,47.5131552 6.88216866,47.6713642 L9.49261642,50.2818119 L9.49261642,39.523603 C9.49261642,39.0497672 9.80903433,38.7325582 10.2836612,38.7325582 C10.7582881,38.7325582 11.074706,39.0497672 11.074706,39.523603 L11.074706,50.2818119 Z M7.39136418,42.9886164 C7.79479701,43.1381239 8.00600597,43.5882284 7.86757313,43.9908701 C7.72597612,44.3982582 7.27349851,44.6205418 6.86136418,44.4805269 C5.96352836,44.1633179 3.86488657,43.2860493 2.17442388,41.1249149 C0.120080597,38.4962731 0.0014238806,35.6754075 -0.000158208955,34.7775716 L-0.000158208955,19.7477209 C0.0014238806,18.9669597 0.095558209,15.6002731 2.72973731,12.7548851 C5.70169254,9.54640746 9.62290149,9.46651194 10.2834239,9.46413881 C10.938409,9.46413881 14.8825582,9.53137761 17.8576776,12.7548851 C20.4863194,15.6026463 20.567797,18.9709149 20.567006,19.7477209 L20.567006,34.7775716 C20.5709612,35.6627507 20.4665433,38.3111687 18.5925582,40.8694075 C16.8419761,43.2591537 14.5629761,44.1807209 13.7070657,44.4797358 C13.2973045,44.6213328 12.8432448,44.4022134 12.7000657,43.9924522 C12.5576776,43.5819 12.7783791,43.1278403 13.1881403,42.9846612 C13.9459612,42.7117507 15.7416328,41.9483925 17.175797,40.0799448 C18.8654687,37.8800493 18.9793791,35.5472582 18.9849164,34.7775716 L18.9849164,19.7477209 C18.9849164,19.1156761 18.9176776,16.1872284 16.6030806,13.7484373 C14.0907224,11.1016015 10.8419015,11.0462284 10.2834239,11.0462284 C9.7431403,11.0478104 6.27440896,11.1190045 3.74069254,13.9928701 C1.45773731,16.5819597 1.55028955,19.6140343 1.58193134,20.2318403 L1.58193134,34.7775716 C1.58984179,35.5512134 1.71245373,37.8128104 3.33409552,39.9818552 C4.78961791,41.9294075 6.64224478,42.716497 7.39136418,42.9886164 Z M8.70149254,1.58208955 C8.70149254,0.708776119 9.41026866,0 10.2835821,0 C11.1568955,0 11.8656716,0.708776119 11.8656716,1.58208955 C11.8656716,2.45698507 11.1568955,3.1641791 10.2835821,3.1641791 C9.41026866,3.1641791 8.70149254,2.45698507 8.70149254,1.58208955 Z M8.70149254,6.32835821 C8.70149254,5.45346269 9.41026866,4.74626866 10.2835821,4.74626866 C11.1568955,4.74626866 11.8656716,5.45346269 11.8656716,6.32835821 C11.8656716,7.20167164 11.1568955,7.91044776 10.2835821,7.91044776 C9.41026866,7.91044776 8.70149254,7.20167164 8.70149254,6.32835821 Z" />
          </g>
        </g>
      </g>
    </g>
  </g>
</svg>
